<svg width="654" height="696" fill="none" xmlns="http://www.w3.org/2000/svg"><g filter="url(#a)"><path d="M564.545 453.392c0 84.977-69.027 153.865-154.175 153.865-85.148 0-321.551-170.524-321.551-255.501 0-84.978 316.083-55.524 401.231-55.524 85.148 0 74.495 72.182 74.495 157.16Z" fill="url(#b)"/></g><g clip-path="url(#c)"><g filter="url(#d)"><path fill-rule="evenodd" clip-rule="evenodd" d="M99.794.743h185.313c20.976 0 40.599 16.978 40.599 40.536v81.838c.764.269 1.31.996 1.31 1.85v54.266c0 .854-.546 1.581-1.31 1.85v328.065c0 23.559-19.623 40.535-40.599 40.535H99.794c-20.975 0-40.599-16.976-40.599-40.535V189.582a1.961 1.961 0 0 1-1.31-1.849v-31.384a1.96 1.96 0 0 1 1.31-1.848v-11.993a1.963 1.963 0 0 1-1.31-1.849v-31.384c0-.854.547-1.58 1.31-1.849V91.511a1.962 1.962 0 0 1-1.31-1.85V73.316c0-.854.547-1.58 1.31-1.85V41.279c0-23.558 19.624-40.536 40.6-40.536Z" fill="#242424"/><path fill-rule="evenodd" clip-rule="evenodd" d="M99.794 3.361H285.11c20.975 0 37.979 16.978 37.979 37.921v467.869c0 20.942-17.004 37.92-37.979 37.92H99.795c-20.976 0-37.98-16.978-37.98-37.92V41.282c0-20.943 17.004-37.92 37.98-37.92Z" fill="#1F1F1F"/><path d="M221.017 21.362a1.667 1.667 0 1 0 0-3.335 1.667 1.667 0 0 0 0 3.335ZM205.558 21.854h-25.342a2.164 2.164 0 0 1-2.159-2.16c0-1.188.971-2.157 2.159-2.157h25.342c1.189 0 2.159.97 2.159 2.158 0 1.189-.97 2.159-2.159 2.159Z" fill="#242424"/><path d="M305.352.743H79.981c-12.203 0-22.095 9.892-22.095 22.095v502.667c0 12.203 9.892 22.095 22.095 22.095h225.371c12.203 0 22.096-9.892 22.096-22.095V22.838c0-12.203-9.893-22.095-22.096-22.095Z" fill="#1F1F1F"/><rect x="89.924" y="388.514" width="204.381" height="13.257" rx="6.629" fill="#717070"/><rect x="89.924" y="82.495" width="204.381" height="26.514" rx="13.257" fill="#717070"/><rect x="89.924" y="437.124" width="204.381" height="13.257" rx="6.629" fill="#717070"/><rect x="82.191" y="144.362" width="220.952" height="208.8" rx="22.095" fill="#2E2E2E"/><path d="M122.109 281.026v3.473h-5.716v17.978h-4.303v-17.978h-5.716v-3.473h15.735Zm12.728 4.179c1.291 0 2.438.287 3.442.861 1.004.553 1.783 1.383 2.336 2.489.574 1.086.86 2.398.86 3.934v9.988h-4.302v-9.404c0-1.352-.338-2.387-1.014-3.104-.676-.738-1.598-1.106-2.766-1.106-1.189 0-2.131.368-2.828 1.106-.676.717-1.014 1.752-1.014 3.104v9.404h-4.303v-22.742h4.303v7.837c.553-.738 1.291-1.311 2.213-1.721.922-.43 1.946-.646 3.073-.646Zm9.624 8.698c0-1.721.338-3.248 1.014-4.579.696-1.332 1.629-2.357 2.797-3.074 1.188-.717 2.509-1.075 3.964-1.075 1.27 0 2.377.256 3.319.768.963.512 1.732 1.158 2.305 1.936v-2.428h4.334v17.026h-4.334v-2.489c-.553.799-1.321 1.465-2.305 1.998-.963.512-2.079.768-3.35.768-1.434 0-2.745-.369-3.933-1.106-1.168-.738-2.101-1.773-2.797-3.104-.676-1.353-1.014-2.9-1.014-4.641Zm13.399.061c0-1.045-.205-1.936-.614-2.673-.41-.759-.963-1.332-1.66-1.721a4.349 4.349 0 0 0-2.244-.615c-.799 0-1.536.195-2.212.584-.676.389-1.23.963-1.66 1.721-.41.737-.615 1.618-.615 2.643 0 1.024.205 1.926.615 2.704.43.758.984 1.342 1.66 1.752.696.41 1.434.615 2.212.615.8 0 1.547-.195 2.244-.584a4.476 4.476 0 0 0 1.66-1.721c.409-.758.614-1.66.614-2.705Zm17.971-8.759c2.028 0 3.667.646 4.917 1.937 1.25 1.27 1.875 3.052 1.875 5.347v9.988h-4.303v-9.404c0-1.352-.338-2.387-1.014-3.104-.676-.738-1.598-1.106-2.766-1.106-1.188 0-2.131.368-2.827 1.106-.677.717-1.015 1.752-1.015 3.104v9.404h-4.302v-17.026h4.302v2.121a5.834 5.834 0 0 1 2.182-1.721 6.767 6.767 0 0 1 2.951-.646Zm20.964 17.272-5.778-7.253v7.253h-4.303v-22.742h4.303v12.939l5.716-7.223h5.594l-7.499 8.544 7.56 8.482h-5.593Zm31.478-17.026-10.541 25.078h-4.579l3.688-8.482-6.823-16.596h4.825l4.395 11.894 4.456-11.894h4.579Zm9.88 17.303c-1.639 0-3.114-.359-4.425-1.076a8.058 8.058 0 0 1-3.104-3.104c-.738-1.331-1.107-2.868-1.107-4.61 0-1.741.379-3.278 1.137-4.61a8.013 8.013 0 0 1 3.166-3.073c1.331-.737 2.817-1.106 4.456-1.106 1.639 0 3.125.369 4.456 1.106a7.802 7.802 0 0 1 3.135 3.073c.779 1.332 1.168 2.869 1.168 4.61 0 1.742-.4 3.279-1.199 4.61a8.158 8.158 0 0 1-3.196 3.104c-1.332.717-2.827 1.076-4.487 1.076Zm0-3.749c.779 0 1.506-.185 2.182-.554.697-.389 1.25-.963 1.66-1.721.409-.758.614-1.68.614-2.766 0-1.618-.43-2.858-1.29-3.718-.84-.881-1.875-1.322-3.104-1.322-1.23 0-2.264.441-3.104 1.322-.82.86-1.23 2.1-1.23 3.718 0 1.619.4 2.869 1.199 3.75.819.86 1.844 1.291 3.073 1.291Zm28.111-13.554v17.026h-4.333v-2.151c-.553.738-1.281 1.322-2.182 1.752-.881.41-1.844.614-2.889.614-1.332 0-2.51-.276-3.534-.829-1.025-.574-1.834-1.404-2.428-2.49-.574-1.106-.861-2.417-.861-3.933v-9.989h4.303v9.374c0 1.352.338 2.397 1.014 3.135.676.717 1.598 1.075 2.766 1.075 1.188 0 2.121-.358 2.797-1.075.676-.738 1.014-1.783 1.014-3.135v-9.374h4.333Zm9.808-4.794-.492 14.844h-3.626l-.522-14.844h4.64Zm-2.213 22.035c-.778 0-1.424-.235-1.936-.706-.491-.492-.737-1.097-.737-1.814 0-.717.246-1.311.737-1.782.512-.492 1.158-.738 1.936-.738.759 0 1.383.246 1.875.738.492.471.738 1.065.738 1.782 0 .717-.246 1.322-.738 1.814-.492.471-1.116.706-1.875.706Z" fill="#969696"/><circle cx="193.219" cy="225.01" r="26.514" fill="#717070"/><path d="m181.307 226.444 8.557 11.246 14.499-23.056" stroke="#1F1F1F" stroke-width="6.085" stroke-linecap="round" stroke-linejoin="round"/><path d="M327.448 527.714c0 12.203-9.893 22.096-22.096 22.096H79.981c-12.203 0-22.095-9.893-22.095-22.096v-32.038h269.562v32.038Z" fill="#2E2E2E"/><rect x="236.857" y="514.457" width="16.571" height="16.571" rx="1.105" stroke="#717070" stroke-width="2.21"/><circle cx="192.667" cy="523.295" r="14.362" fill="#717070"/><path d="M192.805 515.562v15.743M184.933 523.433h15.743" stroke="#1F1F1F" stroke-width="2.21" stroke-linecap="round"/><circle cx="279.792" cy="523.144" r="3.163" fill="#717070"/><circle cx="289.735" cy="523.144" r="3.163" fill="#717070"/><circle cx="299.673" cy="523.144" r="3.163" fill="#717070"/><path d="M147.048 524.077a1.106 1.106 0 0 0 0-1.563l-7.031-7.03a1.103 1.103 0 1 0-1.562 1.562l6.249 6.249-6.249 6.25a1.103 1.103 0 0 0 0 1.562 1.103 1.103 0 0 0 1.562 0l7.031-7.03Zm-19.562.323h18.781v-2.209h-18.781v2.209ZM88.038 522.514a1.106 1.106 0 0 0 0 1.563l7.03 7.03a1.104 1.104 0 1 0 1.563-1.562l-6.25-6.25 6.25-6.249a1.104 1.104 0 1 0-1.563-1.562l-7.03 7.03Zm19.562-.323H88.819v2.209H107.6v-2.209Z" fill="#717070"/><path d="M57.886 22.838C57.886 10.635 67.778.743 79.98.743h225.371c12.203 0 22.096 9.892 22.096 22.095v20.99H57.886v-20.99Z" fill="#2E2E2E"/><rect x="89.924" y="16.21" width="204.381" height="13.257" rx="6.629" fill="#717070"/><path opacity=".65" d="M307 1H78C66.954 1 58 9.954 58 21v457c0 11.046 8.954 20 20 20h229c11.046 0 20-8.954 20-20V21c0-11.046-8.954-20-20-20Z" fill="#1F1F1F"/><path d="M78 1.5h229c10.77 0 19.5 8.73 19.5 19.5v455c0 10.77-8.73 19.5-19.5 19.5H78c-10.77 0-19.5-8.73-19.5-19.5V21c0-10.77 8.73-19.5 19.5-19.5Z" stroke="url(#e)"/></g><g filter="url(#f)"><path d="M289.746 83.048h287.568c11.897 0 21.543 9.645 21.543 21.543v340.883c0 11.898-9.646 21.543-21.543 21.543H289.746c-11.898 0-21.543-9.645-21.543-21.543V104.591c0-11.898 9.645-21.543 21.543-21.543Z" fill="url(#g)" stroke="url(#h)" stroke-width="1.105"/><path d="M562.762 277.691c0 2.889-.755 5.611-2.263 8.167-1.453 2.5-3.633 4.583-6.539 6.25-2.85 1.611-6.231 2.555-10.142 2.833v6.75h-5.365v-6.834c-5.588-.5-10.087-2.166-13.496-4.999-3.409-2.889-5.169-6.778-5.281-11.667h12.574c.335 4 2.403 6.417 6.203 7.25v-15.916c-4.024-1-7.265-2-9.724-3-2.459-1-4.582-2.611-6.37-4.833-1.789-2.222-2.683-5.25-2.683-9.083 0-4.833 1.733-8.778 5.197-11.833 3.521-3.056 8.047-4.806 13.58-5.25v-6.75h5.365v6.75c5.364.444 9.639 2.056 12.825 4.833 3.241 2.778 5.057 6.611 5.448 11.5h-12.657c-.168-1.611-.755-3-1.76-4.167-.95-1.222-2.236-2.083-3.856-2.583v15.75c4.191 1.055 7.488 2.083 9.891 3.083 2.459.944 4.582 2.527 6.371 4.75 1.788 2.166 2.682 5.166 2.682 8.999Zm-30.847-25.666c0 1.834.558 3.334 1.676 4.5 1.118 1.111 2.738 2.028 4.862 2.75v-14.416c-2.012.278-3.605 1.028-4.778 2.25-1.174 1.222-1.76 2.861-1.76 4.916Zm11.903 33.583c2.123-.389 3.772-1.25 4.945-2.584 1.23-1.333 1.844-2.944 1.844-4.833 0-1.833-.586-3.305-1.76-4.416-1.173-1.111-2.85-2.028-5.029-2.75v14.583Z" fill="#717070"/></g><rect x="314.19" y="230.986" width="174.552" height="13.257" rx="6.629" fill="#717070"/><rect x="314.19" y="288.433" width="174.552" height="13.257" rx="6.629" fill="#717070"/><rect x="314.19" y="345.881" width="237.524" height="13.257" rx="6.629" fill="#717070"/><rect x="314.19" y="403.329" width="237.524" height="13.257" rx="6.629" fill="#717070"/><path d="M329.055 139.447v4.924h-8.104v25.489h-6.1v-25.489h-8.104v-4.924h22.308Zm2.882 18.256c0-2.44.479-4.604 1.438-6.492.987-1.888 2.309-3.34 3.965-4.357 1.684-1.016 3.558-1.525 5.62-1.525 1.801 0 3.37.363 4.706 1.09 1.365.726 2.455 1.641 3.268 2.745v-3.443h6.143v24.139h-6.143v-3.53c-.784 1.133-1.874 2.077-3.268 2.832-1.365.727-2.948 1.09-4.749 1.09-2.033 0-3.893-.523-5.577-1.569-1.656-1.045-2.978-2.512-3.965-4.4-.959-1.918-1.438-4.111-1.438-6.58Zm18.997.088c0-1.482-.291-2.745-.872-3.791-.581-1.075-1.365-1.888-2.352-2.44a6.17 6.17 0 0 0-3.181-.872 6.175 6.175 0 0 0-3.137.828c-.959.552-1.743 1.366-2.353 2.44-.581 1.046-.871 2.295-.871 3.747 0 1.453.29 2.731.871 3.835.61 1.074 1.394 1.902 2.353 2.483a6.088 6.088 0 0 0 3.137.872 6.417 6.417 0 0 0 3.181-.828c.987-.581 1.771-1.395 2.352-2.44.581-1.075.872-2.353.872-3.834Zm25.434 12.069-4.967-7.495L367 169.86h-6.536l7.887-12.113-7.974-12.026h6.884l4.924 7.451 4.444-7.451h6.536l-7.93 12.026 8.017 12.113h-6.884Zm36.264 0-6.71-11.852h-2.875v11.852h-6.1v-30.413h11.415c2.353 0 4.358.421 6.013 1.264 1.656.813 2.89 1.931 3.704 3.355.842 1.394 1.263 2.963 1.263 4.705 0 2.005-.581 3.82-1.743 5.447-1.161 1.597-2.89 2.701-5.184 3.311l7.276 12.331h-7.059Zm-9.585-16.427h5.098c1.655 0 2.89-.392 3.703-1.176.813-.813 1.22-1.932 1.22-3.355 0-1.394-.407-2.469-1.22-3.224-.813-.784-2.048-1.177-3.703-1.177h-5.098v8.932Zm44.251 3.835c0 .871-.058 1.655-.174 2.352h-17.646c.145 1.743.755 3.109 1.83 4.096 1.075.988 2.396 1.482 3.965 1.482 2.265 0 3.878-.974 4.836-2.92h6.579c-.697 2.324-2.033 4.241-4.008 5.752-1.975 1.481-4.401 2.222-7.276 2.222-2.324 0-4.416-.509-6.275-1.525-1.83-1.046-3.267-2.513-4.313-4.401-1.017-1.888-1.525-4.066-1.525-6.535 0-2.499.508-4.692 1.525-6.58 1.016-1.888 2.44-3.34 4.27-4.357 1.83-1.016 3.936-1.525 6.318-1.525 2.294 0 4.342.494 6.143 1.482a10.21 10.21 0 0 1 4.226 4.226c1.017 1.801 1.525 3.878 1.525 6.231Zm-6.317-1.743c-.029-1.569-.596-2.818-1.7-3.747-1.103-.959-2.454-1.438-4.052-1.438-1.51 0-2.788.465-3.834 1.394-1.017.901-1.641 2.164-1.874 3.791h11.46Zm9.201 2.266c0-2.499.509-4.677 1.525-6.536 1.017-1.888 2.426-3.341 4.227-4.357 1.8-1.046 3.863-1.569 6.187-1.569 2.991 0 5.46.756 7.407 2.266 1.975 1.481 3.296 3.573 3.965 6.274h-6.58c-.348-1.046-.944-1.859-1.786-2.44-.813-.61-1.83-.915-3.05-.915-1.743 0-3.123.639-4.139 1.917-1.017 1.249-1.525 3.036-1.525 5.36 0 2.294.508 4.081 1.525 5.359 1.016 1.249 2.396 1.873 4.139 1.873 2.469 0 4.081-1.104 4.836-3.311h6.58c-.669 2.614-1.99 4.691-3.965 6.231-1.976 1.539-4.445 2.309-7.407 2.309-2.324 0-4.387-.509-6.187-1.525-1.801-1.046-3.21-2.498-4.227-4.357-1.016-1.888-1.525-4.081-1.525-6.579Zm50.218-.523c0 .871-.058 1.655-.174 2.352H482.58c.145 1.743.755 3.109 1.83 4.096 1.074.988 2.396 1.482 3.965 1.482 2.265 0 3.877-.974 4.836-2.92h6.579c-.697 2.324-2.033 4.241-4.008 5.752-1.976 1.481-4.401 2.222-7.277 2.222-2.323 0-4.415-.509-6.274-1.525-1.83-1.046-3.268-2.513-4.313-4.401-1.017-1.888-1.525-4.066-1.525-6.535 0-2.499.508-4.692 1.525-6.58 1.016-1.888 2.44-3.34 4.27-4.357 1.83-1.016 3.935-1.525 6.317-1.525 2.295 0 4.343.494 6.144 1.482a10.21 10.21 0 0 1 4.226 4.226c1.017 1.801 1.525 3.878 1.525 6.231Zm-6.318-1.743c-.029-1.569-.595-2.818-1.699-3.747-1.104-.959-2.454-1.438-4.052-1.438-1.51 0-2.788.465-3.834 1.394-1.017.901-1.641 2.164-1.874 3.791h11.459Zm13.864-12.679c-1.075 0-1.975-.334-2.701-1.002-.697-.697-1.046-1.554-1.046-2.571 0-1.017.349-1.859 1.046-2.527.726-.697 1.626-1.046 2.701-1.046 1.075 0 1.961.349 2.658 1.046.726.668 1.089 1.51 1.089 2.527 0 1.017-.363 1.874-1.089 2.571-.697.668-1.583 1.002-2.658 1.002Zm3.006 2.875v24.139h-6.099v-24.139h6.099Zm12.127 3.486c.784-1.104 1.859-2.019 3.224-2.745 1.395-.755 2.978-1.133 4.75-1.133 2.062 0 3.921.509 5.577 1.525 1.684 1.017 3.006 2.469 3.965 4.357.987 1.859 1.481 4.023 1.481 6.492 0 2.469-.494 4.662-1.481 6.58-.959 1.888-2.281 3.355-3.965 4.4-1.656 1.046-3.515 1.569-5.577 1.569-1.772 0-3.341-.363-4.706-1.09-1.336-.726-2.426-1.641-3.268-2.744v14.944h-6.1v-35.641h6.1v3.486Zm12.766 8.496c0-1.452-.305-2.701-.915-3.747-.581-1.074-1.365-1.888-2.353-2.44a6.175 6.175 0 0 0-3.137-.828 6.094 6.094 0 0 0-3.137.872c-.958.552-1.743 1.365-2.353 2.44-.58 1.075-.871 2.338-.871 3.791 0 1.452.291 2.715.871 3.79.61 1.075 1.395 1.903 2.353 2.484a6.337 6.337 0 0 0 3.137.828 5.939 5.939 0 0 0 3.137-.872c.988-.581 1.772-1.409 2.353-2.483.61-1.075.915-2.353.915-3.835Zm17.766-6.971v11.677c0 .813.188 1.409.566 1.786.407.349 1.075.523 2.004.523h2.832v5.142h-3.834c-5.141 0-7.712-2.498-7.712-7.495v-11.633h-2.876v-5.011h2.876v-5.969h6.144v5.969h5.402v5.011h-5.402Z" fill="#969696"/></g><defs><linearGradient id="b" x1="253.41" y1="320.592" x2="382.062" y2="432.743" gradientUnits="userSpaceOnUse"><stop stop-color="#83E6D7" stop-opacity="0"/><stop offset="1" stop-color="#3EC0AE" stop-opacity=".51"/></linearGradient><linearGradient id="e" x1="1.232" y1="-109.189" x2="481.84" y2="272.326" gradientUnits="userSpaceOnUse"><stop stop-color="#717070"/><stop offset="1" stop-color="#1F1F1F" stop-opacity="0"/></linearGradient><linearGradient id="g" x1="345.676" y1="82.948" x2="510.838" y2="512.148" gradientUnits="userSpaceOnUse"><stop stop-color="#2E2E2E"/><stop offset="1" stop-color="#1F1F1F"/></linearGradient><linearGradient id="h" x1="197.638" y1="-3.224" x2="571.6" y2="467.405" gradientUnits="userSpaceOnUse"><stop stop-color="#717070"/><stop offset="1" stop-color="#1F1F1F" stop-opacity="0"/></linearGradient><filter id="a" x=".438" y="202.914" width="652.914" height="492.724" filterUnits="userSpaceOnUse" color-interpolation-filters="sRGB"><feFlood flood-opacity="0" result="BackgroundImageFix"/><feBlend in="SourceGraphic" in2="BackgroundImageFix" result="shape"/><feGaussianBlur stdDeviation="44.191" result="effect1_foregroundBlur_17_246"/></filter><filter id="d" x="53.219" y="-2.757" width="283.562" height="564.234" filterUnits="userSpaceOnUse" color-interpolation-filters="sRGB"><feFlood flood-opacity="0" result="BackgroundImageFix"/><feColorMatrix in="SourceAlpha" values="0 0 0 0 0 0 0 0 0 0 0 0 0 0 0 0 0 0 127 0" result="hardAlpha"/><feOffset dx="1.167" dy="1.167"/><feGaussianBlur stdDeviation="2.333"/><feColorMatrix values="0 0 0 0 0.121569 0 0 0 0 0.121569 0 0 0 0 0.121569 0 0 0 0.2 0"/><feBlend in2="BackgroundImageFix" result="effect1_dropShadow_17_246"/><feColorMatrix in="SourceAlpha" values="0 0 0 0 0 0 0 0 0 0 0 0 0 0 0 0 0 0 127 0" result="hardAlpha"/><feOffset dx="2.333" dy="4.667"/><feGaussianBlur stdDeviation="3.5"/><feColorMatrix values="0 0 0 0 0.121569 0 0 0 0 0.121569 0 0 0 0 0.121569 0 0 0 0.1 0"/><feBlend in2="effect1_dropShadow_17_246" result="effect2_dropShadow_17_246"/><feBlend in="SourceGraphic" in2="effect2_dropShadow_17_246" result="shape"/></filter><filter id="f" x="262.909" y="78.94" width="345.981" height="400.482" filterUnits="userSpaceOnUse" color-interpolation-filters="sRGB"><feFlood flood-opacity="0" result="BackgroundImageFix"/><feColorMatrix in="SourceAlpha" values="0 0 0 0 0 0 0 0 0 0 0 0 0 0 0 0 0 0 127 0" result="hardAlpha"/><feOffset dx="1.185" dy="1.185"/><feGaussianBlur stdDeviation="2.37"/><feColorMatrix values="0 0 0 0 0.121569 0 0 0 0 0.121569 0 0 0 0 0.121569 0 0 0 0.2 0"/><feBlend in2="BackgroundImageFix" result="effect1_dropShadow_17_246"/><feColorMatrix in="SourceAlpha" values="0 0 0 0 0 0 0 0 0 0 0 0 0 0 0 0 0 0 127 0" result="hardAlpha"/><feOffset dx="2.37" dy="4.741"/><feGaussianBlur stdDeviation="3.556"/><feColorMatrix values="0 0 0 0 0.121569 0 0 0 0 0.121569 0 0 0 0 0.121569 0 0 0 0.1 0"/><feBlend in2="effect1_dropShadow_17_246" result="effect2_dropShadow_17_246"/><feBlend in="SourceGraphic" in2="effect2_dropShadow_17_246" result="shape"/></filter><clipPath id="c"><path fill="#fff" transform="translate(38 .743)" d="M0 0h580v571.162H0z"/></clipPath></defs></svg>
