<?xml version="1.0" encoding="utf-8"?>
<!-- Generator: Adobe Illustrator 27.5.0, SVG Export Plug-In . SVG Version: 6.00 Build 0)  -->
<svg version="1.1" xmlns="http://www.w3.org/2000/svg" xmlns:xlink="http://www.w3.org/1999/xlink" x="0px" y="0px"
	 viewBox="0 0 500 500" style="enable-background:new 0 0 500 500;" xml:space="preserve">
<g id="BACKGROUND">
	<rect style="fill:#230B19;" width="500" height="500"/>
</g>
<g id="OBJECTS">
	<path style="opacity:0.33;fill:#8536BB;" d="M418.852,398.568H30.554c-4.738-9.996,0.023-23.407,6.497-32.377
		c6.474-8.97,18.01-14.006,28.99-12.656c12.951,1.592,23.762,11.088,36.6,13.422c14.828,2.695,29.963-4.781,40.658-15.4
		c10.694-10.62,17.917-24.135,25.771-36.998c14.819-24.272,33.284-47.615,58.74-60.292c24.013-11.958,53.159-13.117,78.045-3.102
		c24.886,10.015,45.105,31.039,54.141,56.298c4.581,12.805,7.43,27.989,19.076,35.011c7.93,4.781,15.291,8.964,23.889,12.399
		C417.248,360.581,423.446,383.886,418.852,398.568z"/>
	<path style="fill:#C1B3FF;" d="M95.137,423.721L60.174,303.85c-3.704-12.699,5.663-25.444,18.702-25.444h190.167
		c7.891,0,15.004,4.829,18.022,12.236l41.951,102.946c5.358,13.149-4.263,27.579-18.271,27.393
		C244.417,420.097,90.081,418.585,95.137,423.721z"/>
	<path style="fill:#230B19;" d="M107.612,414.639L77.02,309.752c-3.241-11.112,4.956-22.264,16.364-22.264H259.78
		c6.904,0,13.129,4.226,15.769,10.706l36.707,90.077c4.689,11.505-3.73,24.132-15.987,23.968
		C238.233,411.467,103.188,410.145,107.612,414.639z"/>
	<path style="fill:#C1B3FF;" d="M404.553,434.861l-296.414,0c-7.151,0-13.002-5.851-13.002-13.002v-0.273
		c0-7.151,5.851-13.002,13.002-13.002h296.414c7.151,0,13.002,5.851,13.002,13.002v0.273
		C417.554,429.01,411.704,434.861,404.553,434.861z"/>
	<path style="fill:#A595FA;" d="M247.152,434.86l-142.822,0c-5.057,0-9.194-4.137-9.194-9.194v-7.89
		c0-5.057,4.137-9.194,9.194-9.194h142.822c5.057,0,9.194,4.137,9.194,9.194v7.89C256.345,430.723,252.208,434.86,247.152,434.86z"
		/>
	<path style="opacity:0.4;fill:#A595FA;" d="M412.615,305.195h-97.954c-10.027,0-18.156-8.129-18.156-18.156V136.005
		c0-10.027,8.129-18.156,18.156-18.156h97.954c10.027,0,18.156,8.129,18.156,18.156V287.04
		C430.771,297.067,422.642,305.195,412.615,305.195z"/>
	<path style="opacity:0.4;fill:#A595FA;" d="M423.539,327.043h-97.954c-10.027,0-18.156-8.129-18.156-18.156V157.852
		c0-10.027,8.129-18.156,18.156-18.156h97.954c10.027,0,18.156,8.129,18.156,18.156v151.035
		C441.694,318.914,433.566,327.043,423.539,327.043z"/>
	<g>
		
			<ellipse transform="matrix(0.9993 -0.0382 0.0382 0.9993 -3.7845 14.2308)" style="fill:#A595FA;" cx="370.163" cy="106.058" rx="47.695" ry="47.696"/>
		<g>
			
				<ellipse transform="matrix(0.9226 -0.3857 0.3857 0.9226 -9.1702 150.2618)" style="fill:#FFF8F3;" cx="369.874" cy="97.983" rx="13.058" ry="13.058"/>
			<path style="fill:#FFF8F3;" d="M397.454,126.832c-4.451-11.035-15.255-18.827-27.884-18.827s-23.433,7.792-27.885,18.827H397.454
				z"/>
		</g>
	</g>
	<g>
		<path style="fill:#C1B3FF;" d="M391.544,174.454h-72.495c-1.366,0-2.483-1.117-2.483-2.483l0,0c0-1.365,1.117-2.483,2.483-2.483
			h72.495c1.366,0,2.483,1.117,2.483,2.483l0,0C394.027,173.337,392.91,174.454,391.544,174.454z"/>
		
			<line style="fill:none;stroke:#C1B3FF;stroke-width:1.4896;stroke-linecap:round;stroke-linejoin:round;stroke-miterlimit:10;" x1="316.567" y1="182.399" x2="416.867" y2="182.399"/>
		
			<line style="fill:none;stroke:#C1B3FF;stroke-width:1.4896;stroke-linecap:round;stroke-linejoin:round;stroke-miterlimit:10;" x1="316.567" y1="189.35" x2="416.867" y2="189.35"/>
		
			<line style="fill:none;stroke:#C1B3FF;stroke-width:1.4896;stroke-linecap:round;stroke-linejoin:round;stroke-miterlimit:10;" x1="316.567" y1="196.302" x2="416.867" y2="196.302"/>
	</g>
	<g>
		<path style="fill:#C1B3FF;" d="M391.544,215.667h-72.495c-1.366,0-2.483-1.117-2.483-2.483l0,0c0-1.365,1.117-2.483,2.483-2.483
			h72.495c1.366,0,2.483,1.117,2.483,2.483l0,0C394.027,214.55,392.91,215.667,391.544,215.667z"/>
		
			<line style="fill:none;stroke:#C1B3FF;stroke-width:1.4896;stroke-linecap:round;stroke-linejoin:round;stroke-miterlimit:10;" x1="316.567" y1="223.611" x2="416.867" y2="223.611"/>
		
			<line style="fill:none;stroke:#C1B3FF;stroke-width:1.4896;stroke-linecap:round;stroke-linejoin:round;stroke-miterlimit:10;" x1="316.567" y1="230.563" x2="416.867" y2="230.563"/>
		
			<line style="fill:none;stroke:#C1B3FF;stroke-width:1.4896;stroke-linecap:round;stroke-linejoin:round;stroke-miterlimit:10;" x1="316.567" y1="237.514" x2="416.867" y2="237.514"/>
	</g>
	<g>
		<path style="fill:#C1B3FF;" d="M391.544,256.383h-72.495c-1.366,0-2.483-1.117-2.483-2.483l0,0c0-1.366,1.117-2.483,2.483-2.483
			h72.495c1.366,0,2.483,1.117,2.483,2.483l0,0C394.027,255.266,392.91,256.383,391.544,256.383z"/>
		
			<line style="fill:none;stroke:#C1B3FF;stroke-width:1.4896;stroke-linecap:round;stroke-linejoin:round;stroke-miterlimit:10;" x1="316.567" y1="264.328" x2="416.867" y2="264.328"/>
		
			<line style="fill:none;stroke:#C1B3FF;stroke-width:1.4896;stroke-linecap:round;stroke-linejoin:round;stroke-miterlimit:10;" x1="316.567" y1="271.279" x2="416.867" y2="271.279"/>
		
			<line style="fill:none;stroke:#C1B3FF;stroke-width:1.4896;stroke-linecap:round;stroke-linejoin:round;stroke-miterlimit:10;" x1="316.567" y1="278.231" x2="416.867" y2="278.231"/>
	</g>
	<path style="fill:#503C6F;" d="M181.729,424.388h-36.408c-1.516,0-2.757-1.241-2.757-2.757l0,0c0-1.516,1.24-2.757,2.757-2.757
		h36.408c1.516,0,2.757,1.241,2.757,2.757l0,0C184.486,423.147,183.245,424.388,181.729,424.388z"/>
	<path style="opacity:0.4;fill:#A595FA;" d="M450.133,269.468L450.133,269.468c-1.365,0-2.483-1.117-2.483-2.483V127.955
		c0-1.365,1.117-2.483,2.483-2.483l0,0c1.366,0,2.483,1.117,2.483,2.483v139.031C452.616,268.351,451.499,269.468,450.133,269.468z"
		/>
	<path style="fill:#A595FA;" d="M452.616,148.313v-20.358c0-1.365-1.117-2.483-2.483-2.483c-1.365,0-2.483,1.117-2.483,2.483v20.358
		H452.616z"/>
	<g>
		<polyline style="fill:none;stroke:#FFF8F3;stroke-width:0.4965;stroke-miterlimit:10;" points="365.225,337.99 365.225,381.686 
			256.98,381.686 		"/>
		<circle style="fill:#FFF8F3;" cx="254.497" cy="381.189" r="5.462"/>
		<path style="fill:#FFF8F3;" d="M370.191,339.48c0,3.017-2.445,5.462-5.462,5.462c-3.016,0-5.462-2.445-5.462-5.462
			c0-3.016,2.445-5.462,5.462-5.462C367.745,334.018,370.191,336.463,370.191,339.48z"/>
	</g>
	<g>
		<g>
			<g>
				<g>
					
						<ellipse transform="matrix(0.004 -1 1 0.004 -116.0566 494.393)" style="fill:#FFBD51;" cx="190.152" cy="305.456" rx="36.636" ry="36.627"/>
					
						<ellipse transform="matrix(0.004 -1 1 0.004 -116.0566 494.393)" style="fill:#FFBD51;" cx="190.152" cy="305.456" rx="36.636" ry="36.627"/>
					<path style="fill:#FFD45B;" d="M175.947,278.356c1.403,10.222,5.057,20.267,11.313,28.534
						c6.491,8.576,15.395,13.992,25.353,17.701c2.33,0.867,4.731,1.661,7.18,2.376c4.39-6.041,6.986-13.471,6.986-21.511
						c0-20.233-16.398-36.636-36.627-36.636c-5.265,0-10.266,1.12-14.79,3.12C175.462,274.085,175.654,276.226,175.947,278.356z"/>
					<path style="fill:#FFD45B;" d="M190.152,342.092c9.587,0,18.309-3.688,24.838-9.719c-3.041-0.987-6.038-2.109-8.976-3.361
						c-10.854-4.625-19.921-11.682-26.429-21.606c-6.211-9.472-9.624-20.514-10.611-31.832"/>
					
						<ellipse transform="matrix(1 -0.0035 0.0035 1 -1.0776 0.6735)" style="fill:#FFA500;" cx="190.152" cy="305.456" rx="27.996" ry="28.003"/>
					
						<linearGradient id="SVGID_1_" gradientUnits="userSpaceOnUse" x1="4114.6309" y1="305.4557" x2="4170.6226" y2="305.4557" gradientTransform="matrix(-1 0 0 1 4332.7783 0)">
						<stop  offset="0.0212" style="stop-color:#F79A19"/>
						<stop  offset="1" style="stop-color:#F76719"/>
					</linearGradient>
					<path style="opacity:0.62;fill:url(#SVGID_1_);" d="M218.147,305.456c0,15.465-12.534,28.003-27.996,28.003
						c-15.462,0-27.996-12.537-27.996-28.003c0-15.466,12.534-28.003,27.996-28.003C205.613,277.453,218.147,289.99,218.147,305.456
						z"/>
				</g>
			</g>
		</g>
		<g>
			
				<text transform="matrix(1 0 0 1 174.5146 317.6924)" style="fill:#FFD45B; font-family:'Montserrat-Bold'; font-size:40.9258px;">B</text>
			<rect x="184.372" y="284.079" style="fill:#FFD45B;" width="4.695" height="6.749"/>
			<rect x="184.563" y="314.967" style="fill:#FFD45B;" width="4.695" height="6.749"/>
			<rect x="192.148" y="284.079" style="fill:#FFD45B;" width="4.695" height="6.749"/>
			<rect x="192.34" y="284.079" style="fill:#FFD45B;" width="4.695" height="6.749"/>
			<rect x="193.038" y="315.551" style="fill:#FFD45B;" width="4.695" height="6.749"/>
			
				<rect x="174.835" y="288.041" transform="matrix(-1.836970e-16 1 -1 -1.836970e-16 468.598 114.2331)" style="fill:#FFD45B;" width="4.695" height="6.749"/>
			
				<rect x="174.853" y="311.948" transform="matrix(-1.836970e-16 1 -1 -1.836970e-16 492.5234 138.1221)" style="fill:#FFD45B;" width="4.695" height="6.749"/>
		</g>
		<polygon style="fill:#FFF8F3;" points="159.703,277.762 163.88,285.4 171.519,289.577 163.88,293.755 159.703,301.393 
			155.525,293.755 147.887,289.577 155.525,285.4 		"/>
		<polygon style="fill:#FFF8F3;" points="225.034,262.657 227.5,267.165 232.008,269.631 227.5,272.097 225.034,276.605 
			222.569,272.097 218.06,269.631 222.569,267.165 		"/>
	</g>
	<g>
		<g>
			<g>
				<g>
					<ellipse style="fill:#FFBD51;" cx="141.55" cy="213.559" rx="30.667" ry="30.675"/>
					<ellipse style="fill:#FFBD51;" cx="141.55" cy="213.559" rx="30.667" ry="30.675"/>
					<path style="fill:#FFD45B;" d="M129.656,190.869c1.175,8.559,4.234,16.97,9.472,23.891c5.434,7.181,12.89,11.716,21.228,14.821
						c1.951,0.726,3.961,1.391,6.012,1.989c3.675-5.058,5.849-11.279,5.849-18.011c0-16.941-13.73-30.675-30.668-30.675
						c-4.408,0-8.596,0.937-12.384,2.613C129.25,187.293,129.411,189.085,129.656,190.869z"/>
					<path style="fill:#FFD45B;" d="M141.55,244.235c8.027,0,15.33-3.088,20.797-8.137c-2.547-0.826-5.056-1.766-7.515-2.814
						c-9.088-3.872-16.68-9.782-22.129-18.091c-5.201-7.931-8.058-17.177-8.884-26.653"/>
					
						<ellipse transform="matrix(1 -0.0042 0.0042 1 -0.9035 0.6016)" style="fill:#FFA500;" cx="141.55" cy="213.559" rx="23.441" ry="23.447"/>
					
						<linearGradient id="SVGID_00000023271307521955072150000002424846105806187671_" gradientUnits="userSpaceOnUse" x1="4167.7881" y1="213.5592" x2="4214.6699" y2="213.5592" gradientTransform="matrix(-1 0 0 1 4332.7783 0)">
						<stop  offset="0.0212" style="stop-color:#F79A19"/>
						<stop  offset="1" style="stop-color:#F76719"/>
					</linearGradient>
					<path style="opacity:0.62;fill:url(#SVGID_00000023271307521955072150000002424846105806187671_);" d="M164.991,213.559
						c0,12.949-10.495,23.447-23.441,23.447c-12.946,0-23.441-10.497-23.441-23.447c0-12.949,10.495-23.447,23.441-23.447
						C154.496,190.112,164.991,200.61,164.991,213.559z"/>
				</g>
			</g>
		</g>
		<g>
			
				<text transform="matrix(1 0 0 1 128.4556 223.8037)" style="fill:#FFD45B; font-family:'Montserrat-Bold'; font-size:34.2672px;">B</text>
			<rect x="136.71" y="195.661" style="fill:#FFD45B;" width="3.931" height="5.651"/>
			<rect x="136.871" y="221.523" style="fill:#FFD45B;" width="3.931" height="5.651"/>
			<rect x="143.222" y="195.661" style="fill:#FFD45B;" width="3.931" height="5.651"/>
			<rect x="143.382" y="195.661" style="fill:#FFD45B;" width="3.931" height="5.651"/>
			<rect x="143.967" y="222.012" style="fill:#FFD45B;" width="3.931" height="5.651"/>
			
				<rect x="128.725" y="198.978" transform="matrix(-1.836970e-16 1 -1 -1.836970e-16 332.4939 71.1128)" style="fill:#FFD45B;" width="3.931" height="5.651"/>
			
				<rect x="128.74" y="218.995" transform="matrix(-1.836970e-16 1 -1 -1.836970e-16 352.5268 91.1149)" style="fill:#FFD45B;" width="3.931" height="5.651"/>
		</g>
		<polygon style="fill:#FFF8F3;" points="116.055,190.371 119.553,196.766 125.948,200.264 119.553,203.762 116.055,210.157 
			112.557,203.762 106.162,200.264 112.557,196.766 		"/>
	</g>
	<g>
		<g>
			<g>
				<g>
					
						<ellipse transform="matrix(0.0022 -1 1 0.0022 57.2971 411.3313)" style="fill:#FFBD51;" cx="234.768" cy="176.954" rx="44.077" ry="44.065"/>
					
						<ellipse transform="matrix(0.0022 -1 1 0.0022 57.2971 411.3313)" style="fill:#FFBD51;" cx="234.768" cy="176.954" rx="44.077" ry="44.065"/>
					<path style="fill:#FFD45B;" d="M217.678,144.35c1.688,12.298,6.084,24.383,13.611,34.329
						c7.809,10.318,18.522,16.834,30.503,21.296c2.803,1.044,5.692,1.999,8.638,2.858c5.281-7.268,8.404-16.207,8.404-25.88
						c0-24.343-19.729-44.077-44.066-44.077c-6.334,0-12.351,1.347-17.794,3.754C217.095,139.212,217.326,141.788,217.678,144.35z"
						/>
					<path style="fill:#FFD45B;" d="M234.768,221.031c11.534,0,22.028-4.438,29.882-11.692c-3.659-1.187-7.265-2.537-10.799-4.043
						c-13.058-5.564-23.968-14.055-31.797-25.994c-7.473-11.396-11.579-24.681-12.766-38.298"/>
					
						<ellipse transform="matrix(1 -0.0059 0.0059 1 -1.0427 1.3919)" style="fill:#FFA500;" cx="234.768" cy="176.954" rx="33.682" ry="33.69"/>
					
						<linearGradient id="SVGID_00000147217679049846471320000014403570502778206129_" gradientUnits="userSpaceOnUse" x1="4064.3291" y1="176.9539" x2="4131.6929" y2="176.9539" gradientTransform="matrix(-1 0 0 1 4332.7783 0)">
						<stop  offset="0.0212" style="stop-color:#F79A19"/>
						<stop  offset="1" style="stop-color:#F76719"/>
					</linearGradient>
					<path style="opacity:0.62;fill:url(#SVGID_00000147217679049846471320000014403570502778206129_);" d="M268.449,176.954
						c0,18.607-15.08,33.69-33.682,33.69c-18.602,0-33.682-15.083-33.682-33.69c0-18.607,15.08-33.691,33.682-33.691
						C253.37,143.264,268.449,158.347,268.449,176.954z"/>
				</g>
			</g>
		</g>
		<g>
			
				<text transform="matrix(1 0 0 1 215.9551 191.6748)" style="fill:#FFD45B; font-family:'Montserrat-Bold'; font-size:49.2379px;">B</text>
			<rect x="227.814" y="151.236" style="fill:#FFD45B;" width="5.649" height="8.12"/>
			<rect x="228.044" y="188.398" style="fill:#FFD45B;" width="5.649" height="8.12"/>
			<rect x="237.17" y="151.236" style="fill:#FFD45B;" width="5.649" height="8.12"/>
			<rect x="237.4" y="151.236" style="fill:#FFD45B;" width="5.649" height="8.12"/>
			<rect x="238.24" y="189.099" style="fill:#FFD45B;" width="5.649" height="8.12"/>
			
				<rect x="216.34" y="156.002" transform="matrix(-1.836970e-16 1 -1 -1.836970e-16 379.2266 -59.1021)" style="fill:#FFD45B;" width="5.649" height="8.12"/>
			
				<rect x="216.362" y="184.765" transform="matrix(-1.836970e-16 1 -1 -1.836970e-16 408.0114 -30.3614)" style="fill:#FFD45B;" width="5.649" height="8.12"/>
		</g>
		<polygon style="fill:#FFF8F3;" points="192.605,132.575 199.586,145.339 212.35,152.32 199.586,159.302 192.605,172.066 
			185.624,159.302 172.859,152.32 185.624,145.339 		"/>
	</g>
	<path style="fill:#A595FA;" d="M265.165,355.737H129.626c-3.804,0-6.917-3.113-6.917-6.917v-4.672c0-3.804,3.113-6.917,6.917-6.917
		h135.539c3.804,0,6.917,3.113,6.917,6.917v4.672C272.082,352.624,268.969,355.737,265.165,355.737z"/>
	<path style="fill:#FFF8F3;" d="M257.973,345.935H137.811c-2.458,0-4.469-2.011-4.469-4.469l0,0c0-2.458,2.011-4.469,4.469-4.469
		h120.162c2.458,0,4.469,2.011,4.469,4.469l0,0C262.442,343.924,260.431,345.935,257.973,345.935z"/>
	<polygon style="fill:#FFF8F3;" points="196.402,220.685 197.85,223.332 200.497,224.78 197.85,226.227 196.402,228.874 
		194.955,226.227 192.308,224.78 194.955,223.332 	"/>
	<polygon style="fill:#FFF8F3;" points="110.005,146.708 112.679,151.597 117.568,154.271 112.679,156.945 110.005,161.834 
		107.331,156.945 102.442,154.271 107.331,151.597 	"/>
	<polygon style="fill:#FFF8F3;" points="94.116,241.061 95.382,243.375 97.696,244.641 95.382,245.907 94.116,248.222 
		92.85,245.907 90.535,244.641 92.85,243.375 	"/>
	<polygon style="fill:#FFF8F3;" points="274.856,225.39 276.746,228.847 280.203,230.738 276.746,232.629 274.856,236.086 
		272.965,232.629 269.508,230.738 272.965,228.847 	"/>
	<g>
		<g>
			<path style="fill:#A595FA;" d="M253.008,81.777c0,2.742-2.223,4.965-4.965,4.965c-2.742,0-4.965-2.223-4.965-4.965
				c0-2.742,2.223-4.965,4.965-4.965C250.785,76.811,253.008,79.034,253.008,81.777z"/>
			<path style="fill:#A595FA;" d="M283.793,81.777c0,2.742-2.223,4.965-4.965,4.965c-2.742,0-4.965-2.223-4.965-4.965
				c0-2.742,2.223-4.965,4.965-4.965C281.57,76.811,283.793,79.034,283.793,81.777z"/>
		</g>
		<g>
			<path style="fill:#A595FA;" d="M253.008,109.086c0,2.742-2.223,4.965-4.965,4.965c-2.742,0-4.965-2.223-4.965-4.965
				c0-2.742,2.223-4.965,4.965-4.965C250.785,104.121,253.008,106.344,253.008,109.086z"/>
			<path style="fill:#A595FA;" d="M283.793,109.086c0,2.742-2.223,4.965-4.965,4.965c-2.742,0-4.965-2.223-4.965-4.965
				c0-2.742,2.223-4.965,4.965-4.965C281.57,104.121,283.793,106.344,283.793,109.086z"/>
		</g>
	</g>
	
		<line style="fill:none;stroke:#C1B3FF;stroke-width:1.4896;stroke-linecap:round;stroke-linejoin:round;stroke-miterlimit:10;" x1="57.372" y1="452.194" x2="455.595" y2="452.194"/>
	<g>
		<path style="fill:#C1B3FF;" d="M348.369,452.194c0,3.024-2.451,5.475-5.475,5.475c-3.024,0-5.475-2.451-5.475-5.475
			c0-3.023,2.451-5.475,5.475-5.475C345.918,446.719,348.369,449.171,348.369,452.194z"/>
		<path style="fill:#C1B3FF;" d="M422.824,452.194c0,3.024-2.451,5.475-5.475,5.475c-3.023,0-5.475-2.451-5.475-5.475
			c0-3.023,2.451-5.475,5.475-5.475C420.373,446.719,422.824,449.171,422.824,452.194z"/>
		<path style="fill:#C1B3FF;" d="M386.691,452.194c0,3.024-2.451,5.475-5.475,5.475c-3.023,0-5.475-2.451-5.475-5.475
			c0-3.023,2.451-5.475,5.475-5.475C384.24,446.719,386.691,449.171,386.691,452.194z"/>
	</g>
	<g>
		<circle style="fill:#C1B3FF;" cx="180.017" cy="381.189" r="5.462"/>
		<circle style="fill:#C1B3FF;" cx="203.851" cy="381.686" r="5.462"/>
		<circle style="fill:#C1B3FF;" cx="228.181" cy="381.189" r="5.462"/>
	</g>
	<path style="fill:#8536BB;" d="M133.84,266.744H83.889c-1.405-2.306,1.964-6.303,4.602-6.882c2.637-0.579,5.319,0.523,7.813,1.557
		c2.495,1.034,5.247,2.036,7.834,1.262c3.494-1.045,5.279-4.83,8.02-7.235c3.414-2.996,8.65-3.718,12.747-1.757
		C129.002,255.65,134.032,262.206,133.84,266.744z"/>
	<path style="fill:#8536BB;" d="M102.054,192.991H43.228c-1.655-2.716,2.313-7.423,5.419-8.105c3.106-0.682,6.264,0.617,9.201,1.834
		c2.938,1.218,6.179,2.398,9.226,1.486c4.115-1.231,6.217-5.688,9.445-8.521c4.021-3.529,10.186-4.378,15.012-2.069
		C96.356,179.927,102.28,187.647,102.054,192.991z"/>
	<path style="fill:#8536BB;" d="M446.257,364.288H387.43c-1.655-2.716,2.313-7.423,5.419-8.105c3.106-0.682,6.264,0.616,9.202,1.834
		c2.938,1.218,6.179,2.398,9.226,1.487c4.115-1.231,6.217-5.688,9.445-8.521c4.021-3.529,10.186-4.378,15.012-2.069
		C440.559,351.224,446.483,358.944,446.257,364.288z"/>
	<g>
		<path style="fill:#230B19;" d="M282.8,420.912c0,2.468-2.001,4.469-4.469,4.469s-4.469-2.001-4.469-4.469
			c0-2.468,2.001-4.469,4.469-4.469S282.8,418.444,282.8,420.912z"/>
		<path style="fill:#230B19;" d="M302.662,421.409c0,2.468-2.001,4.469-4.469,4.469c-2.468,0-4.469-2.001-4.469-4.469
			c0-2.468,2.001-4.469,4.469-4.469C300.661,416.94,302.662,418.941,302.662,421.409z"/>
	</g>
	<circle style="fill:#230B19;" cx="158.169" cy="144.837" r="5.462"/>
	<g>
		<path style="fill:none;stroke:#A54BE3;stroke-width:0.4965;stroke-miterlimit:10;" d="M124.901,311.674
			c0,2.468-2.001,4.469-4.469,4.469c-2.468,0-4.469-2.001-4.469-4.469c0-2.468,2.001-4.469,4.469-4.469
			C122.9,307.205,124.901,309.206,124.901,311.674z"/>
		<path style="fill:none;stroke:#A54BE3;stroke-width:0.4965;stroke-miterlimit:10;" d="M256.98,307.702
			c0,2.468-2.001,4.469-4.469,4.469c-2.468,0-4.469-2.001-4.469-4.469c0-2.468,2.001-4.469,4.469-4.469
			C254.979,303.233,256.98,305.233,256.98,307.702z"/>
		<circle style="fill:none;stroke:#A54BE3;stroke-width:0.4965;stroke-miterlimit:10;" cx="163.134" cy="165.692" r="5.462"/>
		<circle style="fill:none;stroke:#A54BE3;stroke-width:0.4965;stroke-miterlimit:10;" cx="130.859" cy="130.437" r="3.972"/>
		<path style="fill:none;stroke:#A54BE3;stroke-width:0.4965;stroke-miterlimit:10;" d="M247.049,229.249
			c0,2.468-2.001,4.469-4.469,4.469c-2.468,0-4.469-2.001-4.469-4.469c0-2.468,2.001-4.469,4.469-4.469
			C245.049,224.78,247.049,226.78,247.049,229.249z"/>
	</g>
	<path style="fill:none;stroke:#A54BE3;stroke-width:0.4965;stroke-miterlimit:10;" d="M215.418,103.205
		c0,1.851-1.5,3.352-3.351,3.352c-1.851,0-3.352-1.501-3.352-3.352c0-1.851,1.5-3.351,3.352-3.351
		C213.917,99.854,215.418,101.354,215.418,103.205z"/>
</g>
</svg>
