<svg width="531" height="480" fill="none" xmlns="http://www.w3.org/2000/svg"><path opacity=".3" d="M379.901 309.274c-20.882 10.356-44.353 16.193-69.261 16.193-85.771 0-155.32-69.177-155.32-154.489 0-85.313 69.549-154.49 155.32-154.49 42.857 0 81.629 17.28 109.702 45.146l109.817-109.23C473.956-103.44 396.353-138 310.64-138 139.098-138 0 .353 0 170.978c0 170.624 139.098 308.977 310.64 308.977 67.995 0 130.814-21.8 181.954-58.648l-112.693-112.09v.057Z" fill="url(#a)"/><mask id="b" style="mask-type:alpha" x="0" y="-138" width="531" height="618"><path d="M379.901 309.274c-20.882 10.356-44.353 16.193-69.261 16.193-85.771 0-155.32-69.177-155.32-154.489 0-85.313 69.549-154.49 155.32-154.49 42.857 0 81.629 17.28 109.702 45.146l109.817-109.23C473.956-103.44 396.353-138 310.64-138 139.098-138 0 .353 0 170.978c0 170.624 139.098 308.977 310.64 308.977 67.995 0 130.814-21.8 181.954-58.648l-112.693-112.09v.057Z" fill="#1F1F1F"/></mask><g mask="url(#b)"><path d="M325.307 277.952c19.515-1.901 27.876 3.374 28.698 7.832 2.095 11.369-8.033 19.364-24.405 19.2-15.633-.163-38.312-1.983-56.472-12.043-7.148-3.967 7.786-14.743 12.696-14.539 4.93.205 22.864 1.166 39.503-.45h-.02Z" fill="#FF9A75"/><path d="m336.604 277.768-15.899 2.638c4.663-12.821-1.973-14.559-1.973-14.559l6.615-11.083 11.257 23.004Zm-68.53-42.368c.74 8.813 8.238 26.255 17.605 44.72 4.252 8.404-7.457 18.26-15.551 10.98-8.114-7.279-14.051-54.657-14.051-54.657 6.081-6.257 11.997-1.043 11.997-1.043Z" fill="#FF9A75"/><path d="M262.159 206.753c2.752 5.255 4.581 1.636 6.327 2.474 1.746.838 6.06 8.384 6.204 10.163.164 2.106-6.574 8.301-6.595 17.564 0 1.657-11.791.777-11.791.777s-4.561-13.454-4.622-17.135c-.082-3.66-4.17-7.954-2.116-7.75 2.054.205 5.053 4.11 6.635 6.36 1.582 2.228 3.472-1.8 3.328-7.075-.185-5.296-6.348-14.948-4.088-15.786 1.459-.552 4.519 6.236 6.718 10.408Zm98.911 228.096s-10.476 26.255-2.095 44.924c13.599 30.303 8.936 95.532 10.086 103.179 1.13 7.648-12.695 15.888-16.085.573-3.389-15.315-19.536-82.65-26.684-98.784-7.149-16.133-4.376-46.334-4.376-46.334l39.175-3.558h-.021Z" fill="#FF9A75"/><path d="M332.188 455.399c-6.533 13.373-13.373 52.98-9.984 77.681 3.39 24.722-4.375 73.142-4.581 80.912-.185 7.75-13.907 14.539-14.626-1.206-.74-15.724-8.238-78.274-12.531-95.594-4.294-17.34 3.061-69.993 3.061-69.993s45.173-5.194 38.64 8.2h.021Z" fill="#FF9A75"/><path d="M353.121 348.824s3.04 11.042 11.073 24.517c8.032 13.496 15.53 33.453 12.798 48.83-2.712 15.193 3.102 75.371 8.689 106.145 0 0-27.506 5.316-37.942 12.616-36.422 25.54-75.864 1.656-75.864 1.656 0-65.555 27.486-150.475 33.094-188.038l48.152-5.726Z" fill="url(#c)"/><path d="M296.711 312.795c2.362-6.052 3.677-12.146 6.265-21.797 2.589-9.651 18.571-15.704 33.608-13.209 16.516 2.74 19.289 26.255 19.351 41.1.041 13.761-1.417 29.322 6.553 51.508-17.482 15.581-46.159 23.045-64.175 13.434 2.178-14.947 9.635-40.159 6.327-51.488-.554-1.901-12.531-7.79-7.909-19.548h-.02Z" fill="#969696"/><path d="M308.174 236.586c-.391-1.881-.062-5.357.164-7.095 1.787-14.886 23.028-1.105 30.341 10.98 7.314 12.085-22.72 33.535-28.882 22.963-7.252-12.453-3.842-21.879-3.452-22.411 1.459-2.004 2.219-2.74 1.849-4.457l-.02.02Z" fill="#FF9A75"/><path d="M329.538 213.889c16.167 4.192 21.446-5.337 30.033 13.557 7.087 15.561 19.413.797 26.726 18.832 7.313 18.035-.883 12.76 9.758 29.691 9.08 14.416-.699 27.932-4.479 37.276-3.779 9.365-10.6 14.048-2.3 27.584 0 0-33.814-.449-31.122-22.758 2.67-22.309-18.694-11.635-16.804-27.4 1.52-12.657-14.77-7.423-14.318-15.397.451-7.996-14.73-11.513-4.54-25.887 6.039-8.527-17.153-13.905-16.044-23.168.739-6.175 6.902-16.522 23.069-12.33h.021Z" fill="#717070"/><path d="M324.834 241.719c1.171 2.637.143 6.563-1.5 8.976-1.664 2.393-3.143 1.575-2.855.348.328-1.595-1.418-4.417-.534-8.507.246-1.165 3.738-3.435 4.909-.817h-.02Zm-23.747 70.218c.801-19.487 7.21-27.012 11.75-27.216 11.607-.491 18.16 10.591 15.736 26.725-2.301 15.377-7.252 37.481-19.783 54.003-4.93 6.502-15.283-8.384-14.4-13.21.883-4.825 5.998-23.699 6.697-40.323v.021Zm-49.94 94.469c3.246-4.192 10.087-8.916 7.334-9.018-2.732-.102-6.307-.388-7.601-1.983-1.294-1.595 3.349.45 6.471-1.493 3.123-1.922 14.175-3.599 14.175-3.599s7.231 7.402 6.039 8.547c-1.191 1.146-3.78 5.337-5.998 8.343-2.219 3.006-3.698 12.167-5.465 11.921-1.766-.245-9.798.062-11.462-.92-1.664-1.002-2.014-9.897-2.835-4.008-.822 6.012-4.91 9.774-4.602 7.689.432-3.231.719-11.328 3.944-15.5v.021Z" fill="#FF9A75"/><path d="M268.465 391.172c6.923-5.562 18.837-30.181 24.774-37.951 2.691-3.558 22.063-5.787 20.563 4.969-1.499 10.776-37.552 42.265-37.552 42.265-8.607-1.492-7.785-9.283-7.785-9.283Z" fill="#FF9A75"/></g><g clip-path="url(#d)"><g opacity=".25" filter="url(#e)"><path d="M266.01 323.468 143 394.665V141.197L266.01 70v253.468Z" fill="url(#f)"/></g><path d="M279 306.829 155.99 378V144.532L279 73.362v233.467Z" fill="url(#g)"/><path d="M190.066 168.261c2.101-3.595 2.121-7.498.045-8.717-2.076-1.219-5.462.707-7.563 4.302-2.1 3.595-2.12 7.497-.044 8.716 2.076 1.219 5.462-.707 7.562-4.301Zm28.197-12.293c1.474-2.522 1.486-5.262.026-6.119-1.459-.857-3.837.493-5.311 3.016-1.474 2.522-1.486 5.262-.027 6.119 1.46.857 3.838-.493 5.312-3.016Z" fill="#DECDC8"/><path d="M218.951 156.093c1.474-2.522 1.486-5.262.027-6.119-1.46-.857-3.838.493-5.312 3.016-1.474 2.522-1.486 5.262-.026 6.119 1.459.857 3.837-.493 5.311-3.016Z" fill="#FFECE5"/><path d="M245.77 142.247c1.474-2.523 1.486-5.263.026-6.12-1.46-.857-3.838.494-5.312 3.016-1.474 2.523-1.485 5.263-.026 6.12 1.46.857 3.838-.494 5.312-3.016Z" fill="#DECDC8"/><path d="M246.486 142.345c1.474-2.522 1.485-5.262.026-6.119-1.46-.857-3.838.493-5.312 3.016-1.474 2.522-1.486 5.262-.026 6.119 1.459.857 3.838-.493 5.312-3.016Zm8.25 30.058L188.28 210.86v-3.944l66.456-38.457v3.944Z" fill="#FFECE5"/><path d="m188.281 210.86-1.98-1.165v-3.943l1.98 1.164v3.944Z" fill="#D1C1BC"/><path d="m188.281 206.916 66.455-38.457-2.006-1.165-66.429 38.458 1.98 1.164Z" fill="#DECDC8"/><path d="m254.737 196.25-66.456 38.457v-3.917l66.456-38.457v3.917Z" fill="#FFECE5"/><path d="m188.281 234.707-1.98-1.165v-3.917l1.98 1.165v3.917Z" fill="#D1C1BC"/><path d="m188.281 230.79 66.455-38.457-2.006-1.165-66.429 38.457 1.98 1.165Z" fill="#DECDC8"/><path d="m254.736 220.917-66.456 38.458v-3.944l66.456-38.457v3.943Z" fill="#FFECE5"/><path d="m188.281 259.375-1.98-1.165v-3.944l1.98 1.165v3.944Z" fill="#D1C1BC"/><path d="m188.281 255.431 66.455-38.457-2.006-1.165-66.429 38.457 1.98 1.165Zm6.204-90.81-4.621-2.673v-2.515l4.621 2.674v2.514Zm-7.287 10.666-4.621-2.673V170.1l4.621 2.673v2.514Z" fill="#DECDC8"/><path d="M194.474 170.866c2.101-3.595 2.121-7.497.045-8.716-2.076-1.219-5.462.707-7.563 4.301-2.1 3.595-2.12 7.497-.044 8.716 2.076 1.219 5.462-.706 7.562-4.301Zm60.962 75.216-66.456 38.457v-3.917l66.456-38.457v3.917Z" fill="#FFECE5"/><path d="m188.98 284.539-1.98-1.165v-3.917l1.98 1.165v3.917Z" fill="#D1C1BC"/><path d="m188.98 280.622 66.456-38.457-2.007-1.165L187 279.457l1.98 1.165Z" fill="#DECDC8"/><path d="m255.436 269.082-66.456 38.457v-3.917l66.456-38.457v3.917Z" fill="#FFECE5"/><path d="m188.98 307.539-1.98-1.165v-3.917l1.98 1.165v3.917Z" fill="#D1C1BC"/><path d="m188.98 303.622 66.456-38.457-2.007-1.165L187 302.457l1.98 1.165Z" fill="#DECDC8"/><path d="m255.436 292.082-66.456 38.457v-3.917l66.456-38.457v3.917Z" fill="#FFECE5"/><path d="m188.98 330.539-1.98-1.165v-3.917l1.98 1.165v3.917Z" fill="#D1C1BC"/><path d="m188.98 326.622 66.456-38.457-2.007-1.165L187 325.457l1.98 1.165Z" fill="#DECDC8"/></g><g clip-path="url(#h)"><path d="M325.307 277.952c19.515-1.902 27.876 3.374 28.698 7.832 2.095 11.369-8.033 19.364-24.405 19.2-15.633-.163-38.312-1.983-56.472-12.044-7.148-3.966 7.786-14.742 12.696-14.538 4.93.204 22.864 1.166 39.503-.45h-.02Z" fill="#FF9A75"/><path d="m336.604 277.768-15.899 2.638c4.663-12.821-1.973-14.559-1.973-14.559l6.615-11.083 11.257 23.004Zm-68.53-42.368c.74 8.813 8.238 26.255 17.605 44.72 4.252 8.404-7.457 18.26-15.551 10.98-8.114-7.279-14.051-54.657-14.051-54.657 6.081-6.257 11.997-1.043 11.997-1.043Z" fill="#FF9A75"/><path d="M262.159 206.753c2.752 5.255 4.581 1.635 6.327 2.474 1.746.838 6.06 8.383 6.204 10.162.164 2.107-6.574 8.302-6.595 17.565 0 1.656-11.791.777-11.791.777s-4.561-13.455-4.622-17.135c-.082-3.66-4.17-7.954-2.116-7.75 2.054.205 5.053 4.11 6.635 6.359 1.582 2.229 3.472-1.799 3.328-7.075-.185-5.296-6.348-14.947-4.088-15.785 1.459-.552 4.519 6.236 6.718 10.408Z" fill="#FF9A75"/><path d="M353.121 348.824s3.04 11.042 11.073 24.517c8.032 13.496 15.53 33.453 12.798 48.83-2.712 15.193 3.102 75.371 8.689 106.145 0 0-27.506 5.316-37.942 12.616-36.422 25.539-75.864 1.656-75.864 1.656 0-65.556 27.486-150.476 33.094-188.038l48.152-5.726Z" fill="url(#i)"/><path d="M296.711 312.795c2.362-6.052 3.677-12.146 6.265-21.797 2.589-9.651 18.571-15.704 33.608-13.209 16.516 2.74 19.289 26.255 19.351 41.1.041 13.761-1.417 29.322 6.553 51.508-17.482 15.581-46.159 23.045-64.175 13.434 2.178-14.947 9.635-40.159 6.327-51.488-.554-1.901-12.531-7.79-7.909-19.548h-.02Z" fill="url(#j)"/><path d="M308.174 236.586c-.391-1.881-.062-5.357.164-7.095 1.787-14.886 23.028-1.105 30.341 10.98 7.314 12.085-22.72 33.535-28.882 22.963-7.252-12.453-3.842-21.879-3.452-22.411 1.459-2.004 2.219-2.74 1.849-4.457l-.02.02Z" fill="#FF9A75"/><path d="M329.538 213.889c16.167 4.192 21.446-5.337 30.033 13.557 7.087 15.561 19.413.797 26.726 18.832 7.313 18.035-.883 12.76 9.758 29.691 9.08 14.415-.699 27.931-4.479 37.276-3.779 9.365-10.6 14.048-2.3 27.584 0 0-33.814-.45-31.122-22.758 2.67-22.309-18.694-11.635-16.804-27.4 1.52-12.658-14.77-7.423-14.318-15.398.451-7.995-14.73-11.512-4.54-25.887 6.039-8.526-17.153-13.904-16.044-23.167.739-6.175 6.902-16.522 23.069-12.33h.021Z" fill="url(#k)"/><path d="M324.834 241.718c1.171 2.638.143 6.564-1.5 8.977-1.664 2.392-3.143 1.575-2.855.348.328-1.595-1.418-4.417-.534-8.507.246-1.165 3.738-3.435 4.909-.818h-.02Zm-23.747 70.218c.801-19.486 7.21-27.011 11.75-27.216 11.607-.49 18.16 10.592 15.736 26.726-2.301 15.377-7.252 37.481-19.783 54.003-4.93 6.502-15.283-8.384-14.4-13.21.883-4.825 5.998-23.699 6.697-40.323v.02Zm-49.94 94.47c3.246-4.192 10.087-8.916 7.334-9.018-2.732-.102-6.307-.388-7.601-1.983-1.294-1.595 3.349.449 6.471-1.493 3.123-1.922 14.175-3.599 14.175-3.599s7.231 7.402 6.039 8.547c-1.191 1.145-3.78 5.337-5.998 8.343-2.219 3.006-3.698 12.167-5.465 11.921-1.766-.245-9.798.061-11.462-.92-1.664-1.002-2.014-9.897-2.835-4.008-.822 6.012-4.91 9.774-4.602 7.689.432-3.231.719-11.329 3.944-15.5v.021Z" fill="#FF9A75"/><path d="M268.465 391.172c6.923-5.562 18.837-30.181 24.774-37.951 2.691-3.558 22.063-5.787 20.563 4.968-1.499 10.777-37.552 42.266-37.552 42.266-8.607-1.492-7.785-9.283-7.785-9.283Z" fill="#FF9A75"/></g><defs><linearGradient id="a" x1="385.294" y1="130.118" x2="490.65" y2="446.525" gradientUnits="userSpaceOnUse"><stop offset=".031" stop-color="#83E6D7" stop-opacity="0"/><stop offset="1" stop-color="#3EC0AE"/></linearGradient><linearGradient id="c" x1="271.875" y1="348.824" x2="438.141" y2="409.887" gradientUnits="userSpaceOnUse"><stop stop-color="#83E6D7"/><stop offset="1" stop-color="#5D5EB4"/></linearGradient><linearGradient id="f" x1="143" y1="70" x2="335.017" y2="117.871" gradientUnits="userSpaceOnUse"><stop stop-color="#83E6D7"/><stop offset="1" stop-color="#5D5EB4"/></linearGradient><linearGradient id="g" x1="103.37" y1="117.509" x2="330.443" y2="272.275" gradientUnits="userSpaceOnUse"><stop stop-color="#83E6D7"/><stop offset="1" stop-color="#5D5EB4"/></linearGradient><linearGradient id="i" x1="271.875" y1="348.824" x2="438.141" y2="409.887" gradientUnits="userSpaceOnUse"><stop stop-color="#83E6D7"/><stop offset="1" stop-color="#5D5EB4"/></linearGradient><linearGradient id="j" x1="295.673" y1="277.226" x2="391.405" y2="315.182" gradientUnits="userSpaceOnUse"><stop stop-color="#83E6D7"/><stop offset="1" stop-color="#5D5EB4"/></linearGradient><linearGradient id="k" x1="280.999" y1="107" x2="443.088" y2="267.285" gradientUnits="userSpaceOnUse"><stop stop-color="#B1B1F6"/><stop offset="1" stop-color="#5D5EB4"/></linearGradient><clipPath id="d"><path fill="#fff" transform="translate(133 60)" d="M0 0h146v345H0z"/></clipPath><clipPath id="h"><path fill="#fff" transform="translate(247.183 196.304)" d="M0 0h152.632v238.402H0z"/></clipPath><filter id="e" x="133" y="60" width="143.01" height="344.665" color-interpolation-filters="sRGB"><feFlood flood-opacity="0" result="BackgroundImageFix"/><feBlend in="SourceGraphic" in2="BackgroundImageFix" result="shape"/><feGaussianBlur stdDeviation="5" result="effect1_foregroundBlur_26_1080"/></filter></defs></svg>